<?xml version="1.0" encoding="utf-8"?>
<!-- Generator: Adobe Illustrator 24.3.0, SVG Export Plug-In . SVG Version: 6.00 Build 0)  -->
<svg version="1.1" id="Layer_1" xmlns="http://www.w3.org/2000/svg" xmlns:xlink="http://www.w3.org/1999/xlink" x="0px" y="0px"
	 viewBox="0 0 512 512" style="enable-background:new 0 0 512 512;" xml:space="preserve">
<style type="text/css">
	.st0{fill:url(#XMLID_4_);}
	.st1{fill:#FFFFFF;}
</style>
<g id="XMLID_1_">
	
		<linearGradient id="XMLID_4_" gradientUnits="userSpaceOnUse" x1="-702.51" y1="796.7181" x2="-702.2551" y2="796.7181" gradientTransform="matrix(1761.5388 -1792.3081 -1792.3081 -1761.5388 2665493.5 144820.9062)">
		<stop  offset="0" style="stop-color:#070135"/>
		<stop  offset="1" style="stop-color:#612D50"/>
	</linearGradient>
	<path id="XMLID_3_" class="st0" d="M83.46,0h345.07c45.45,0,82.34,36.89,82.34,82.34v347.32c0,45.45-36.89,82.34-82.34,82.34H83.46
		c-45.45,0-82.34-36.89-82.34-82.34V82.34C1.12,36.89,37.87,0,83.46,0z"/>
	<path id="XMLID_7_" class="st1" d="M259.79,220.37c13.05,0,22.86-2.81,29.6-8.56c6.73-5.61,10.1-14.03,10.1-25.11
		c0-10.94-3.37-19.22-10.1-24.83c-6.73-5.75-16.55-8.7-29.6-8.7h-45.73v67.19H259.79 M262.59,359.1c16.55,0,29.04-3.51,37.31-10.38
		c8.42-6.87,12.62-17.39,12.62-31.42c0-13.75-4.21-23.99-12.48-30.86c-8.28-6.87-20.76-10.38-37.59-10.38h-48.53v83.04L262.59,359.1
		 M339.46,245.06c17.67,5.05,31.42,14.45,41.24,28.2c9.68,13.75,14.59,30.58,14.59,50.5c0,30.58-10.38,53.44-31.28,68.45
		c-20.9,15.01-52.6,22.58-95.25,22.58H131.58V97.63h124c44.47,0,76.73,6.59,96.65,19.92c20.06,13.33,30.02,34.65,30.02,63.96
		c0,15.43-3.65,28.62-10.94,39.56C364.01,231.87,353.35,239.87,339.46,245.06"/>
</g>
</svg>
