<?xml version="1.0" encoding="utf-8"?>
<!-- Generator: Adobe Illustrator 24.1.1, SVG Export Plug-In . SVG Version: 6.00 Build 0)  -->
<svg version="1.1" id="Layer_1" xmlns="http://www.w3.org/2000/svg" xmlns:xlink="http://www.w3.org/1999/xlink" x="0px" y="0px"
	 viewBox="0 0 512 512" style="enable-background:new 0 0 512 512;" xml:space="preserve">
<style type="text/css">
	.st0{fill:#CC0000;}
	.st1{fill:#FFFFFF;}
	.st2{fill:#910505;}
</style>
<g>
	<polygon class="st0" points="42.2,128.9 259.8,2.3 477.3,128.9 477.3,382 259.8,508.7 42.2,382 	"/>
	<polygon class="st1" points="265.9,255.4 468.1,138.9 476.3,373.7 265.9,500.8 	"/>
	<path class="st0" d="M471.2,131.8l-0.6,248.8L259.6,503l-1-244.6L471.2,131.8z M293.7,278.8l0.6,163.4l70.1-40.9l-0.2-123.2
		l35.4-20.9v123.6l35.4-20.7l0.2-165.5L293.7,278.8z"/>
	<path class="st2" d="M273.6,4.1c-9.8-5.5-25.4-5.5-35.2,0L45.7,114.9c-9.8,5.5-17.5,19.3-17.5,30.3v221.6
		c0,11.2,7.9,24.8,17.5,30.3l192.7,110.8c9.8,5.5,25.4,5.5,35.2,0l192.7-110.8c9.8-5.5,17.5-19.3,17.5-30.3V145.2
		c0-11.2-7.9-24.8-17.5-30.3L273.6,4.1z M444.6,120c9.8,5.5,9.8,14.6,0,20.1l-168.7,97c-9.8,5.5-25.4,5.5-35.2,0L69.5,138.7
		c-9.8-5.5-9.8-14.6,0-20.1l168.7-97c9.8-5.5,25.4-5.5,35.2,0L444.6,120z M43.3,161.3c0-11.2,7.9-15.7,17.5-10.2l172.6,99.2
		c9.8,5.5,17.5,19.3,17.5,30.3v196.8c0,11.2-7.9,15.7-17.5,10.2L60.7,388.3c-9.8-5.5-17.5-19.3-17.5-30.3V161.3z M283.8,484.5
		c-9.8,5.5-17.5,1-17.5-10.2V280.6c0-11.2,7.9-24.8,17.5-30.3l167.5-96.2c9.8-5.5,17.5-1,17.5,10.2v193.7c0,11.2-7.9,24.8-17.5,30.3
		L283.8,484.5z"/>
</g>
</svg>
